<svg width="100" height="100" viewBox="0 0 100 100" fill="none" xmlns="http://www.w3.org/2000/svg">
<rect width="100" height="100" rx="15" fill="#7ABB74"/>
<path d="M35.1567 49.7619C35.1567 49.1817 35.3872 48.6253 35.7974 48.2151C36.2077 47.8049 36.7641 47.5744 37.3442 47.5744H47.5322V37.3865C47.5322 36.8063 47.7626 36.2499 48.1729 35.8397C48.5831 35.4294 49.1395 35.199 49.7197 35.199C50.2998 35.199 50.8562 35.4294 51.2665 35.8397C51.6767 36.2499 51.9072 36.8063 51.9072 37.3865V47.5744H62.0951C62.6752 47.5744 63.2316 47.8049 63.6419 48.2151C64.0521 48.6253 64.2826 49.1817 64.2826 49.7619C64.2826 50.3421 64.0521 50.8985 63.6419 51.3087C63.2316 51.7189 62.6752 51.9494 62.0951 51.9494H51.9072V62.1373C51.9072 62.7175 51.6767 63.2739 51.2665 63.6841C50.8562 64.0943 50.2998 64.3248 49.7197 64.3248C49.1395 64.3248 48.5831 64.0943 48.1729 63.6841C47.7626 63.2739 47.5322 62.7175 47.5322 62.1373V51.9494H37.3442C36.7641 51.9494 36.2077 51.7189 35.7974 51.3087C35.3872 50.8985 35.1567 50.3421 35.1567 49.7619Z" fill="#97E890"/>
<path fill-rule="evenodd" clip-rule="evenodd" d="M36.0607 25.7548C45.1388 24.7484 54.3002 24.7484 63.3783 25.7548C68.707 26.3498 73.0091 30.5469 73.6332 35.9048C74.7124 45.1127 74.7124 54.414 73.6332 63.6219C73.0062 68.9798 68.7041 73.174 63.3783 73.7719C54.3002 74.7783 45.1388 74.7783 36.0607 73.7719C30.732 73.174 26.4299 68.9798 25.8057 63.6219C24.7314 54.4141 24.7314 45.1126 25.8057 35.9048C26.4299 30.5469 30.7349 26.3498 36.0607 25.7548ZM62.8941 30.1006C54.1378 29.1301 45.3012 29.1301 36.5449 30.1006C34.924 30.2805 33.411 31.0015 32.2504 32.1473C31.0897 33.2931 30.3493 34.7967 30.1487 36.4152C29.1113 45.2847 29.1113 54.2449 30.1487 63.1144C30.3499 64.7324 31.0906 66.2353 32.2512 67.3805C33.4117 68.5257 34.9244 69.2464 36.5449 69.4261C45.2278 70.3944 54.2112 70.3944 62.8941 69.4261C64.5141 69.2458 66.0261 68.5249 67.186 67.3797C68.346 66.2345 69.0863 64.7319 69.2874 63.1144C70.3248 54.2449 70.3248 45.2847 69.2874 36.4152C69.0857 34.7982 68.3451 33.2963 67.1852 32.1517C66.0253 31.0071 64.5136 30.2867 62.8941 30.1065" fill="#97E890"/>
</svg>
