<svg width="37" height="37" viewBox="0 0 37 37" fill="none" xmlns="http://www.w3.org/2000/svg">
<path d="M0.875 32.2083C0.875 33.2471 1.28765 34.2433 2.02216 34.9778C2.75668 35.7124 3.7529 36.125 4.79167 36.125H32.2083C33.2471 36.125 34.2433 35.7124 34.9778 34.9778C35.7124 34.2433 36.125 33.2471 36.125 32.2083V4.79167C36.125 3.7529 35.7124 2.75668 34.9778 2.02216C34.2433 1.28765 33.2471 0.875 32.2083 0.875H4.79167C3.7529 0.875 2.75668 1.28765 2.02216 2.02216C1.28765 2.75668 0.875 3.7529 0.875 4.79167V32.2083ZM18.5 6.75H30.25V18.5H26.3333V10.6667H18.5V6.75ZM6.75 18.5H10.6667V26.3333H18.5V30.25H6.75V18.5Z" fill="#5AC751"/>
</svg>
