<svg width="24" height="30" viewBox="0 0 24 30" fill="none" xmlns="http://www.w3.org/2000/svg">
<path d="M10.875 0.124512C10.5064 0.207183 10.1478 0.329391 9.8055 0.489012C3.8295 3.28201 0 11.0925 0 17.784C0 24.144 4.7745 29.37 10.875 29.9475V0.124512ZM13.125 29.9475C19.2255 29.37 24 24.1455 24 17.7855C24 17.1755 23.9685 16.5585 23.9055 15.9345L13.125 26.7165V29.9475ZM21.39 7.77001C20.8145 6.69099 20.1417 5.66674 19.38 4.71001L13.125 10.965V16.035L21.39 7.77001ZM17.862 3.04501C16.7865 1.99935 15.5478 1.13603 14.1945 0.489012C13.8522 0.329391 13.4936 0.207183 13.125 0.124512V7.78351L17.862 3.04501ZM22.404 9.93601L13.125 19.2165V23.5335L23.25 13.4085L23.448 13.2105C23.184 12.094 22.835 10.9993 22.404 9.93601Z" fill="#5AC751"/>
</svg>
