<svg width="19" height="19" viewBox="0 0 19 19" fill="none" xmlns="http://www.w3.org/2000/svg">
<path d="M14.2646 9.44297H12.3568L10.449 14.2125L8.54119 4.67346L6.63339 9.44297H4.72559" stroke="#5AC751" stroke-width="1.5" stroke-linecap="round" stroke-linejoin="round"/>
<path d="M0.910156 9.44303C0.910156 5.39562 0.910156 3.3724 2.1674 2.11515C3.42464 0.85791 5.44882 0.85791 9.49527 0.85791C13.5417 0.85791 15.5659 0.85791 16.8231 2.11515C18.0804 3.3724 18.0804 5.39658 18.0804 9.44303C18.0804 13.4895 18.0804 15.5137 16.8231 16.7709C15.5659 18.0281 13.5417 18.0281 9.49527 18.0281C5.44882 18.0281 3.42464 18.0281 2.1674 16.7709C0.910156 15.5137 0.910156 13.4895 0.910156 9.44303Z" stroke="#5AC751" stroke-width="1.5" stroke-linecap="round" stroke-linejoin="round"/>
</svg>
