<svg width="43" height="43" viewBox="0 0 43 43" fill="none" xmlns="http://www.w3.org/2000/svg">
<path d="M33.9844 42.0625C32.5664 42.144 31.1538 41.8286 29.9052 41.1517C28.6565 40.4749 27.6212 39.4634 26.9156 38.2308C26.2099 36.9983 25.8617 35.5934 25.9102 34.1739C25.9587 32.7544 26.4018 31.3766 27.1899 30.195L32.5009 22.2902C32.6645 22.0469 32.8853 21.8476 33.144 21.7098C33.4027 21.572 33.6913 21.4999 33.9844 21.4999C34.2775 21.4999 34.5661 21.572 34.8248 21.7098C35.0835 21.8476 35.3043 22.0469 35.4678 22.2902L40.6819 30.0408C41.5438 31.3172 42.0228 32.8134 42.0625 34.353C42.0101 36.4454 41.1305 38.4318 39.6163 39.8768C38.1022 41.3219 36.0769 42.1079 33.9844 42.0625ZM33.9844 25.3481L29.6721 31.7622C29.1646 32.4997 28.8778 33.3667 28.8452 34.2614C28.8126 35.1561 29.0356 36.0416 29.488 36.8142C29.9405 37.5868 30.6037 38.2144 31.4001 38.6237C32.1964 39.0329 33.0928 39.2068 33.9844 39.125C35.2979 39.1703 36.576 38.6938 37.5392 37.7996C38.5025 36.9054 39.0726 35.6663 39.125 34.353C39.0905 33.3683 38.7689 32.4151 38.1997 31.6109L33.9844 25.3481ZM14.1562 21.5V14.1562H15.625C17.1826 14.1543 18.6758 13.5347 19.7771 12.4334C20.8785 11.332 21.4981 9.8388 21.5 8.28125V3.875H17.0938C15.5898 3.87777 14.1447 4.4601 13.0591 5.50091C12.2989 4.11963 11.182 2.96761 9.82498 2.16495C8.46794 1.3623 6.9204 0.938414 5.34375 0.9375H0.9375V5.34375C0.940221 7.68014 1.86955 9.92005 3.52163 11.5721C5.1737 13.2242 7.41361 14.1535 9.75 14.1562H11.2188V21.5H0.9375V24.4375H21.5V21.5H14.1562ZM17.0938 6.8125H18.5625V8.28125C18.5625 9.06032 18.253 9.80749 17.7021 10.3584C17.1512 10.9093 16.4041 11.2188 15.625 11.2188H14.1562V9.75C14.1562 8.97093 14.4657 8.22376 15.0166 7.67287C15.5675 7.12199 16.3147 6.8125 17.0938 6.8125ZM9.75 11.2188C8.19245 11.2168 6.69925 10.5972 5.59789 9.49586C4.49654 8.3945 3.87694 6.9013 3.875 5.34375V3.875H5.34375C6.9013 3.87694 8.3945 4.49654 9.49586 5.59789C10.5972 6.69925 11.2168 8.19245 11.2188 9.75V11.2188H9.75ZM0.9375 28.8438H21.5V31.7812H0.9375V28.8438ZM0.9375 36.1875H21.5V39.125H0.9375V36.1875Z" fill="#5AC751"/>
</svg>
