<svg width="49" height="49" viewBox="0 0 49 49" fill="none" xmlns="http://www.w3.org/2000/svg">
<path d="M20.4163 12.25L14.2913 12.25C13.2084 12.25 12.1698 12.6802 11.404 13.4459C10.6382 14.2117 10.208 15.2503 10.208 16.3333L10.208 34.7083C10.208 35.7913 10.6382 36.8299 11.404 37.5956C12.1698 38.3614 13.2084 38.7916 14.2913 38.7916L32.6663 38.7916C33.7493 38.7916 34.7879 38.3614 35.5537 37.5956C36.3195 36.8299 36.7497 35.7913 36.7497 34.7083L36.7497 28.5833M28.583 14.2916C28.583 15.9161 29.2283 17.474 30.377 18.6227C31.5256 19.7713 33.0836 20.4166 34.708 20.4166C36.3325 20.4166 37.8904 19.7713 39.039 18.6227C40.1877 17.474 40.833 15.9161 40.833 14.2916C40.833 12.6672 40.1877 11.1093 39.039 9.9606C37.8904 8.81194 36.3325 8.16663 34.708 8.16663C33.0836 8.16663 31.5256 8.81194 30.377 9.9606C29.2283 11.1093 28.583 12.6672 28.583 14.2916Z" stroke="#5AC751" stroke-width="4" stroke-linecap="round" stroke-linejoin="round"/>
<circle cx="34.6496" cy="14.3499" r="8.05" fill="#5AC751"/>
</svg>
