<svg width="18" height="18" viewBox="0 0 18 18" fill="none" xmlns="http://www.w3.org/2000/svg">
<path d="M16.9388 5.60523H14.2968C14.8683 6.59544 15.0971 7.74656 14.9476 8.88003C14.7981 10.0135 14.2787 11.066 13.47 11.8741C12.7787 12.5792 11.8789 13.247 10.8857 13.8629C10.8235 13.9007 10.7505 13.9166 10.6782 13.9079C10.606 13.8992 10.5387 13.8665 10.4873 13.815L7.66037 10.9881C7.59889 10.9266 7.52566 10.878 7.44505 10.8454C7.36444 10.8127 7.27809 10.7966 7.19113 10.798C7.10417 10.7993 7.01836 10.8181 6.93882 10.8533C6.85927 10.8885 6.7876 10.9393 6.72807 11.0027C6.61352 11.1312 6.55303 11.299 6.55923 11.4711C6.56543 11.6431 6.63783 11.8061 6.76134 11.9261L9.18581 14.3505C9.22203 14.3867 9.24918 14.4309 9.26506 14.4795C9.28094 14.5282 9.28509 14.5799 9.27718 14.6304C9.26927 14.681 9.24952 14.7289 9.21954 14.7704C9.18956 14.8119 9.1502 14.8457 9.10467 14.869C5.88259 16.5421 2.41465 17.6578 1.90996 17.8152C1.66853 17.9277 1.39834 17.9632 1.13605 17.9169C0.873762 17.8706 0.632059 17.7448 0.443725 17.5564C0.255391 17.3681 0.12954 17.1264 0.0832419 16.8641C0.0369439 16.6018 0.0724391 16.3316 0.184914 16.0902C0.406427 15.3835 2.53798 8.76565 5.44768 5.27012C5.47659 5.23553 5.5124 5.20735 5.55281 5.18737C5.59322 5.16738 5.63735 5.15604 5.68239 5.15405C5.72743 5.15207 5.77239 5.15949 5.8144 5.17584C5.85641 5.19219 5.89456 5.21711 5.9264 5.24902L9.33836 8.66179C9.40147 8.72486 9.4769 8.77424 9.55995 8.80685C9.64299 8.83946 9.73187 8.85461 9.82103 8.85133C9.9102 8.84806 9.99773 8.82644 10.0782 8.78782C10.1586 8.74921 10.2302 8.69442 10.2885 8.6269C10.3952 8.49817 10.4494 8.33397 10.4404 8.16704C10.4313 8.00011 10.3597 7.84272 10.2398 7.72624L6.88386 4.37027C6.84964 4.3362 6.82346 4.29491 6.80722 4.24943C6.79098 4.20395 6.78509 4.15542 6.78999 4.10738C6.79489 4.05933 6.81044 4.01298 6.83553 3.97172C6.86061 3.93045 6.89459 3.8953 6.93498 3.86883C7.74006 3.3374 8.67725 3.04072 9.64148 3.01206C10.6057 2.98339 11.5589 3.22388 12.3941 3.70655V1.06137C12.3939 0.97231 12.412 0.884162 12.4474 0.802408C12.4827 0.720654 12.5344 0.647044 12.5994 0.586157C12.6644 0.525271 12.7413 0.478411 12.8252 0.448492C12.909 0.418573 12.9982 0.406235 13.087 0.412247C13.2543 0.426799 13.4099 0.504208 13.5223 0.628876C13.6348 0.753544 13.6958 0.916206 13.6932 1.08409V3.38929L15.8304 1.25124C15.8907 1.19093 15.9623 1.14309 16.0411 1.11045C16.1199 1.07781 16.2044 1.06101 16.2896 1.06101C16.3749 1.06101 16.4594 1.07781 16.5382 1.11045C16.617 1.14309 16.6886 1.19093 16.7489 1.25124C16.8092 1.31155 16.8571 1.38315 16.8897 1.46195C16.9223 1.54075 16.9391 1.6252 16.9391 1.71049C16.9391 1.79578 16.9223 1.88024 16.8897 1.95904C16.8571 2.03784 16.8092 2.10944 16.7489 2.16975L14.6109 4.30698H16.9161C17.0839 4.3043 17.2466 4.36534 17.3713 4.47782C17.4959 4.59029 17.5733 4.74583 17.5879 4.9131C17.5938 5.00189 17.5814 5.09095 17.5514 5.17474C17.5214 5.25852 17.4745 5.33526 17.4137 5.40016C17.3528 5.46507 17.2792 5.51677 17.1975 5.55205C17.1158 5.58732 17.0278 5.60543 16.9388 5.60523Z" fill="white"/>
</svg>
