<svg width="19" height="17" viewBox="0 0 19 17" fill="none" xmlns="http://www.w3.org/2000/svg">
<path fill-rule="evenodd" clip-rule="evenodd" d="M6.65095 14.6539C3.94883 12.5834 0.258789 9.16334 0.258789 5.92962C0.258789 0.527224 5.30861 -1.48995 9.44029 2.68212C13.572 -1.48995 18.6218 0.527224 18.6218 5.92962C18.6218 9.16334 14.9308 12.5834 12.2296 14.6539C11.0067 15.5904 10.3952 16.0596 9.44029 16.0596C8.48541 16.0596 7.87392 15.5913 6.65095 14.6539ZM13.572 3.435C13.7546 3.435 13.9297 3.50755 14.0589 3.63669C14.188 3.76583 14.2606 3.94099 14.2606 4.12362V5.2713H15.4083C15.5909 5.2713 15.766 5.34385 15.8952 5.47299C16.0243 5.60213 16.0969 5.77729 16.0969 5.95992C16.0969 6.14255 16.0243 6.3177 15.8952 6.44684C15.766 6.57598 15.5909 6.64853 15.4083 6.64853H14.2606V7.79622C14.2606 7.97885 14.188 8.154 14.0589 8.28314C13.9297 8.41228 13.7546 8.48483 13.572 8.48483C13.3893 8.48483 13.2142 8.41228 13.085 8.28314C12.9559 8.154 12.8834 7.97885 12.8834 7.79622V6.64853H11.7357C11.553 6.64853 11.3779 6.57598 11.2487 6.44684C11.1196 6.3177 11.0471 6.14255 11.0471 5.95992C11.0471 5.77729 11.1196 5.60213 11.2487 5.47299C11.3779 5.34385 11.553 5.2713 11.7357 5.2713H12.8834V4.12362C12.8834 3.94099 12.9559 3.76583 13.085 3.63669C13.2142 3.50755 13.3893 3.435 13.572 3.435Z" fill="#5AC751"/>
</svg>
